HIERARCHY
ROOT Hips
{
    OFFSET   0.000000   0.000000   0.000000
    CHANNELS 6 Xposition Yposition Zposition Zrotation Xrotation Yrotation
    JOINT Chest
    {
        OFFSET   0.000000   8.007230   0.000000
        CHANNELS 3 Zrotation Xrotation Yrotation
        JOINT Chest2
        {
            OFFSET   0.000000  22.077100   0.000000
            CHANNELS 3 Zrotation Xrotation Yrotation
            JOINT Neck
            {
                OFFSET   0.000000  23.254800  -0.000021
                CHANNELS 3 Zrotation Xrotation Yrotation
                JOINT Head
                {
                    OFFSET   0.000000  14.370000   1.956610
                    CHANNELS 3 Zrotation Xrotation Yrotation
                    End Site
                    {
                        OFFSET   0.000000  19.566000   0.000000
                    }
                }
            }
            JOINT LeftCollar
            {
                OFFSET   3.911900  19.017000  -0.467063
                CHANNELS 3 Zrotation Xrotation Yrotation
                JOINT LeftShoulder
                {
                    OFFSET  10.383700   0.000000   0.000000
                    CHANNELS 3 Zrotation Xrotation Yrotation
                    JOINT LeftElbow
                    {
                        OFFSET  26.662100   0.001529   0.000325
                        CHANNELS 3 Zrotation Xrotation Yrotation
                        JOINT LeftWrist
                        {
                            OFFSET  28.869000  -0.000011  -0.000096
                            CHANNELS 3 Zrotation Xrotation Yrotation
                            JOINT LeftFinger0
                            {
                                OFFSET   2.044650  -2.323460   3.252850
                                CHANNELS 3 Zrotation Xrotation Yrotation
                                JOINT LeftFinger01
                                {
                                    OFFSET   3.088130   0.000000   0.000000
                                    CHANNELS 3 Zrotation Xrotation Yrotation
                                    JOINT LeftFinger02
                                    {
                                        OFFSET   2.639460   0.000000   0.000000
                                        CHANNELS 3 Zrotation Xrotation Yrotation
                                        End Site
                                        {
                                            OFFSET   2.582190   0.000000   0.000000
                                        }
                                    }
                                }
                            }
                            JOINT LeftFinger1
                            {
                                OFFSET   8.364480   0.000000   3.252850
                                CHANNELS 3 Zrotation Xrotation Yrotation
                                JOINT LeftFinger11
                                {
                                    OFFSET   4.646930   0.000000   0.000000
                                    CHANNELS 3 Zrotation Xrotation Yrotation
                                    JOINT LeftFinger12
                                    {
                                        OFFSET   2.323460   0.000000   0.000000
                                        CHANNELS 3 Zrotation Xrotation Yrotation
                                        End Site
                                        {
                                            OFFSET   2.273050   0.000000   0.000000
                                        }
                                    }
                                }
                            }
                            JOINT LeftFinger2
                            {
                                OFFSET   8.364480   0.000016   1.078090
                                CHANNELS 3 Zrotation Xrotation Yrotation
                                JOINT LeftFinger21
                                {
                                    OFFSET   5.111620   0.000000   0.000000
                                    CHANNELS 3 Zrotation Xrotation Yrotation
                                    JOINT LeftFinger22
                                    {
                                        OFFSET   2.788160   0.000017   0.000000
                                        CHANNELS 3 Zrotation Xrotation Yrotation
                                        End Site
                                        {
                                            OFFSET   2.727660   0.000000   0.000000
                                        }
                                    }
                                }
                            }
                            JOINT LeftFinger3
                            {
                                OFFSET   7.899780   0.000015  -1.078090
                                CHANNELS 3 Zrotation Xrotation Yrotation
                                JOINT LeftFinger31
                                {
                                    OFFSET   4.646920   0.000000   0.000000
                                    CHANNELS 3 Zrotation Xrotation Yrotation
                                    JOINT LeftFinger32
                                    {
                                        OFFSET   2.323470   0.000000   0.000000
                                        CHANNELS 3 Zrotation Xrotation Yrotation
                                        End Site
                                        {
                                            OFFSET   2.273050   0.000000   0.000000
                                        }
                                    }
                                }
                            }
                            JOINT LeftFinger4
                            {
                                OFFSET   7.435090   0.000000  -3.252850
                                CHANNELS 3 Zrotation Xrotation Yrotation
                                JOINT LeftFinger41
                                {
                                    OFFSET   3.717550   0.000000   0.000000
                                    CHANNELS 3 Zrotation Xrotation Yrotation
                                    JOINT LeftFinger42
                                    {
                                        OFFSET   1.858760   0.000000   0.000000
                                        CHANNELS 3 Zrotation Xrotation Yrotation
                                        End Site
                                        {
                                            OFFSET   1.818440   0.000000   0.000000
                                        }
                                    }
                                }
                            }
                        }
                    }
                }
            }
            JOINT RightCollar
            {
                OFFSET  -3.911900  19.017000  -0.467062
                CHANNELS 3 Zrotation Xrotation Yrotation
                JOINT RightShoulder
                {
                    OFFSET -10.383700   0.000015   0.000000
                    CHANNELS 3 Zrotation Xrotation Yrotation
                    JOINT RightElbow
                    {
                        OFFSET -26.662100   0.001341   0.000385
                        CHANNELS 3 Zrotation Xrotation Yrotation
                        JOINT RightWrist
                        {
                            OFFSET -28.869000   0.000025  -0.000080
                            CHANNELS 3 Zrotation Xrotation Yrotation
                            JOINT RightFinger0
                            {
                                OFFSET  -2.044650  -2.323490   3.252850
                                CHANNELS 3 Zrotation Xrotation Yrotation
                                JOINT RightFinger01
                                {
                                    OFFSET  -3.088130   0.000000   0.000000
                                    CHANNELS 3 Zrotation Xrotation Yrotation
                                    JOINT RightFinger02
                                    {
                                        OFFSET  -2.639460   0.000000   0.000000
                                        CHANNELS 3 Zrotation Xrotation Yrotation
                                        End Site
                                        {
                                            OFFSET  -2.582190   0.000000   0.000000
                                        }
                                    }
                                }
                            }
                            JOINT RightFinger1
                            {
                                OFFSET  -8.364480   0.000000   3.252850
                                CHANNELS 3 Zrotation Xrotation Yrotation
                                JOINT RightFinger11
                                {
                                    OFFSET  -4.646930   0.000000   0.000000
                                    CHANNELS 3 Zrotation Xrotation Yrotation
                                    JOINT RightFinger12
                                    {
                                        OFFSET  -2.323470   0.000000   0.000000
                                        CHANNELS 3 Zrotation Xrotation Yrotation
                                        End Site
                                        {
                                            OFFSET  -2.273050   0.000000   0.000000
                                        }
                                    }
                                }
                            }
                            JOINT RightFinger2
                            {
                                OFFSET  -8.364480   0.000000   1.078090
                                CHANNELS 3 Zrotation Xrotation Yrotation
                                JOINT RightFinger21
                                {
                                    OFFSET  -5.111610   0.000000   0.000000
                                    CHANNELS 3 Zrotation Xrotation Yrotation
                                    JOINT RightFinger22
                                    {
                                        OFFSET  -2.788160   0.000000   0.000000
                                        CHANNELS 3 Zrotation Xrotation Yrotation
                                        End Site
                                        {
                                            OFFSET  -2.727660   0.000000   0.000000
                                        }
                                    }
                                }
                            }
                            JOINT RightFinger3
                            {
                                OFFSET  -7.899780   0.000000  -1.078090
                                CHANNELS 3 Zrotation Xrotation Yrotation
                                JOINT RightFinger31
                                {
                                    OFFSET  -4.646920   0.000000   0.000000
                                    CHANNELS 3 Zrotation Xrotation Yrotation
                                    JOINT RightFinger32
                                    {
                                        OFFSET  -2.323470   0.000000   0.000000
                                        CHANNELS 3 Zrotation Xrotation Yrotation
                                        End Site
                                        {
                                            OFFSET  -2.273050   0.000000   0.000000
                                        }
                                    }
                                }
                            }
                            JOINT RightFinger4
                            {
                                OFFSET  -7.435090   0.000000  -3.252850
                                CHANNELS 3 Zrotation Xrotation Yrotation
                                JOINT RightFinger41
                                {
                                    OFFSET  -3.717550   0.000000   0.000000
                                    CHANNELS 3 Zrotation Xrotation Yrotation
                                    JOINT RightFinger42
                                    {
                                        OFFSET  -1.858770   0.000000   0.000000
                                        CHANNELS 3 Zrotation Xrotation Yrotation
                                        End Site
                                        {
                                            OFFSET  -1.818440   0.000000   0.000000
                                        }
                                    }
                                }
                            }
                        }
                    }
                }
            }
        }
    }
    JOINT LeftHip
    {
        OFFSET   9.783010   0.000000   0.000000
        CHANNELS 3 Zrotation Xrotation Yrotation
        JOINT LeftKnee
        {
            OFFSET   0.000070 -41.789100   0.000028
            CHANNELS 3 Zrotation Xrotation Yrotation
            JOINT LeftAnkle
            {
                OFFSET   0.000087 -41.133200  -0.000100
                CHANNELS 3 Zrotation Xrotation Yrotation
                JOINT LeftToe
                {
                    OFFSET   0.000000  -6.358960  14.674500
                    CHANNELS 3 Zrotation Xrotation Yrotation
                    End Site
                    {
                        OFFSET   0.000000   0.000000   3.913200
                    }
                }
            }
        }
    }
    JOINT RightHip
    {
        OFFSET  -9.783020   0.000000   0.000000
        CHANNELS 3 Zrotation Xrotation Yrotation
        JOINT RightKnee
        {
            OFFSET   0.000044 -41.789100  -0.000870
            CHANNELS 3 Zrotation Xrotation Yrotation
            JOINT RightAnkle
            {
                OFFSET  -0.000090 -41.133200  -0.000245
                CHANNELS 3 Zrotation Xrotation Yrotation
                JOINT RightToe
                {
                    OFFSET   0.000000  -6.358960  14.674500
                    CHANNELS 3 Zrotation Xrotation Yrotation
                    End Site
                    {
                        OFFSET   0.000000   0.000000   3.913200
                    }
                }
            }
        }
    }
}
MOTION
Frames: 4
Frame Time:   0.016667
 -1.974960  89.440000   4.207630  -2.537480  -5.830400  -8.615580   0.532302   4.228610  -0.668677   1.118800   8.450520  -1.382520   7.011010   0.906352  -0.111420  11.525800   1.755590  13.212200  -0.845917   3.991080   6.088560 -81.096200  11.858700  -4.172440  -1.836080   1.170610 -13.623700   8.195670  -5.449860  -4.419590  38.124700  30.148300 -51.842100 -32.793800   0.008087   0.005259 -11.396900   0.016776  -0.050329 -30.826600  -1.025910   1.718560 -25.234300   0.010150   0.018089 -17.664000   0.002221   0.014232 -25.919700  -4.286880   8.761440 -26.247600   0.022219  -0.000445 -17.480900   0.014706   0.003822 -28.252000  -4.653440   8.580070 -37.426200  -0.000774  -0.004477 -24.928200   0.000547  -0.003054 -33.941200  -5.480510   8.076380 -51.492600   0.045686   0.012771 -34.294100   0.021402   0.023233   0.869162   1.345020   1.862780  67.721700 -20.197500  66.132700  -3.733640 -29.778800  93.432700  61.400300  -4.862760   4.246070 -35.297100  33.018700  63.380400  37.968800   0.008562  -0.006585  14.277700   0.001170   0.002967  61.083100  -0.151134  -0.092924  49.979900   0.005522  -0.008723  37.484900   0.001126  -0.002809  76.772700  -0.166416  -0.049304  76.776200   0.002229  -0.021104  57.582100  -0.013312  -0.005328  80.726200  -4.916550  -0.820694  80.760600  -0.009713  -0.021107  60.570500  -0.015117  -0.009538  84.732500  -9.945910  -0.928411 110.000000  -0.007227   0.001233  80.000000   0.001445  -0.001332   4.374490   9.725210  -0.023073  -0.158056   2.119320  15.547600  -3.710800  -5.928940   0.547916   0.000000   0.000000  -0.000000   1.511150   8.856780  -5.659830   0.726603   1.251010  -9.904780  -0.283650  -3.618780   4.767970   0.000000   0.000000   0.000000
 -1.974820  89.440200   4.200930  -2.516910  -5.839680  -8.611380   0.549802   4.253900  -0.633113   1.151630   8.501220  -1.312730   6.839720   0.814886  -0.097743  11.242800   1.581950  13.322800  -0.910968   3.913180   6.017600 -81.041300  11.883800  -4.181440  -1.838820   1.165590 -13.641800   8.140240  -5.560710  -4.416800  38.110600  30.098900 -51.785500 -32.778200   0.006282   0.003061 -11.389100   0.016776  -0.050354 -30.831100  -1.022970   1.713200 -25.238000   0.028093   0.013702 -17.666100   0.015305   0.014197 -25.910200  -4.286540   8.763860 -26.238100   0.054393   0.000022 -17.474600   0.032666   0.015699 -28.251800  -4.653600   8.581620 -37.431600   0.029590  -0.008205 -24.930800   0.020406   0.000955 -33.957500  -5.483770   8.076910 -51.517600   0.012776   0.003099 -34.310800   0.006380   0.005856   0.778745   1.194380   1.886020  67.533800 -20.315200  66.180400  -3.618800 -29.907500  92.996900  64.350800  -6.130180   6.457270 -35.647200  33.356300  63.512800  37.744700   0.007567  -0.005843  14.087900   0.001142   0.003107  60.575100  -0.256919  -0.154260  49.564700   0.006297  -0.009021  37.173500   0.001386  -0.003002  76.184700  -0.286006  -0.079975  76.188600   0.002366  -0.022961  57.141400  -0.013652  -0.005523  80.070300  -4.905910  -0.877710  80.106700  -0.009702  -0.024224  60.080100  -0.015374  -0.009808  84.158600  -9.935870  -1.028560 110.000000  -0.007286   0.001277  80.012900   0.001426  -0.001304   4.362630   9.704170  -0.021945  -0.167982   2.140180  15.541600  -3.710910  -5.921020   0.548490  -0.000000   0.000000   0.000000   1.468560   8.904440  -5.655980   0.765733   1.160760  -9.951790  -0.263704  -3.566250   4.830680  -0.000000   0.000000   0.000000
 -1.974630  89.440200   4.193600  -2.495630  -5.844970  -8.610840   0.568990   4.279190  -0.591203   1.187350   8.551990  -1.230330   6.653540   0.720850  -0.084068  10.935500   1.402840  13.475000  -0.976588   3.836750   5.953900 -80.989500  11.894400  -4.190220  -1.839850   1.159050 -13.680600   8.066670  -5.797040  -4.407540  38.084400  29.991500 -51.654300 -32.738700   0.003466   0.002325 -11.369400   0.016776  -0.050358 -30.832900  -1.022200   1.711700 -25.239400   0.037306   0.007281 -17.667600   0.022670   0.013953 -25.880800  -4.286130   8.771280 -26.209100   0.072498   0.000670 -17.455300   0.042518   0.022884 -28.251400  -4.654100   8.586250 -37.435300   0.048353  -0.010099 -24.931900   0.032584   0.004309 -33.978800  -5.490200   8.079620 -51.550200  -0.015517  -0.003822 -34.332500  -0.007467  -0.007606   0.683758   1.043730   1.915350  67.228500 -20.424800  66.240600  -3.426260 -30.051800  92.557700  66.938700  -7.281990   8.716150 -36.093800  33.834200  63.609200  37.481400   0.006083  -0.004721  13.882600   0.001057   0.003243  59.886200  -0.398183  -0.242726  49.001400   0.007071  -0.009302  36.751100   0.001643  -0.003208  75.367100  -0.447480  -0.128486  75.371200   0.002498  -0.023300  56.528300  -0.013736  -0.006144  79.158500  -4.890210  -0.955138  79.198100  -0.009620  -0.026857  59.398600  -0.015410  -0.010089  83.356100  -9.919690  -1.166710 110.000000  -0.007348   0.001321  80.025700   0.001372  -0.001216   4.349250   9.687060  -0.021783  -0.177261   2.155280  15.540400  -3.710710  -5.911830   0.552551   0.000000   0.000000   0.000000   1.426530   8.948110  -5.652750   0.800418   1.069710  -9.982570  -0.242657  -3.510000   4.886940   0.000000   0.000000   0.000000
 -1.974420  89.440000   4.185010  -2.475540  -5.844560  -8.623780   0.587448   4.301670  -0.542202   1.221000   8.597310  -1.133580   6.466130   0.627361  -0.071059  10.626300   1.223780  13.662600  -1.035820   3.757420   5.894140 -80.942200  11.892400  -4.188330  -1.826670   1.146980 -13.731500   7.983110  -6.126910  -4.390120  38.050200  29.808700 -51.412700 -32.658500   0.001228   0.004378 -11.329300   0.007346  -0.027507 -30.821600  -1.022510   1.713340 -25.230200   0.016516   0.005471 -17.661100   0.009606   0.008639 -25.826500  -4.285810   8.784950 -26.155600   0.035553   0.009753 -17.419700   0.017979   0.017692 -28.250000  -4.658370   8.595740 -37.423400   0.026348   0.001016 -24.924000   0.015238   0.006759 -33.990400  -5.497810   8.087300 -51.568500  -0.010026   0.000023 -34.344700  -0.005961  -0.006801   0.593787   0.898002   1.946580  66.696500 -20.504000  66.311200  -3.207160 -30.337400  92.020400  69.197900  -8.369400  10.882600 -36.737500  34.499500  63.571200  37.147800   0.004980  -0.003818  13.648300   0.000930   0.003372  58.799200  -0.615472  -0.391778  48.112800   0.007853  -0.009558  36.084600   0.001898  -0.003422  74.153300  -0.693144  -0.216983  74.157900   0.002627  -0.023374  55.618400  -0.013678  -0.008223  77.787500  -4.854870  -1.069270  77.832600  -0.009147  -0.030404  58.374400  -0.015215  -0.010363  82.141400  -9.889120  -1.375190 110.000000  -0.007428   0.001370  80.006100  -0.003336   0.003136   4.330670   9.674410  -0.028070  -0.180575   2.162900  15.548000  -3.709660  -5.900650   0.568158  -0.000000   0.000000   0.000000   1.386420   8.987060  -5.640920   0.829450   0.982294 -10.010700  -0.216461  -3.455810   4.945710  -0.000000   0.000000  -0.000000
